<svg width="351" height="59" viewBox="0 0 351 59" fill="none" xmlns="http://www.w3.org/2000/svg">
<path d="M116.324 20.7102C116.278 20.2519 116.083 19.8958 115.739 19.642C115.394 19.3883 114.926 19.2614 114.335 19.2614C113.934 19.2614 113.595 19.3182 113.318 19.4318C113.042 19.5417 112.83 19.6951 112.682 19.892C112.538 20.089 112.466 20.3125 112.466 20.5625C112.458 20.7708 112.502 20.9527 112.597 21.108C112.695 21.2633 112.83 21.3977 113 21.5114C113.17 21.6212 113.367 21.7178 113.591 21.8011C113.814 21.8807 114.053 21.9489 114.307 22.0057L115.352 22.2557C115.86 22.3693 116.326 22.5208 116.75 22.7102C117.174 22.8996 117.542 23.1326 117.852 23.4091C118.163 23.6856 118.403 24.0114 118.574 24.3864C118.748 24.7614 118.837 25.1913 118.841 25.6761C118.837 26.3883 118.655 27.0057 118.295 27.5284C117.939 28.0473 117.424 28.4508 116.75 28.7386C116.08 29.0227 115.271 29.1648 114.324 29.1648C113.384 29.1648 112.566 29.0208 111.869 28.733C111.176 28.4451 110.634 28.0189 110.244 27.4545C109.858 26.8864 109.655 26.1837 109.636 25.3466H112.017C112.044 25.7367 112.155 26.0625 112.352 26.3239C112.553 26.5814 112.82 26.7765 113.153 26.9091C113.491 27.0379 113.871 27.1023 114.295 27.1023C114.712 27.1023 115.074 27.0417 115.381 26.9205C115.691 26.7992 115.932 26.6307 116.102 26.4148C116.273 26.1989 116.358 25.9508 116.358 25.6705C116.358 25.4091 116.28 25.1894 116.125 25.0114C115.973 24.8333 115.75 24.6818 115.455 24.5568C115.163 24.4318 114.805 24.3182 114.381 24.2159L113.114 23.8977C112.133 23.6591 111.358 23.286 110.79 22.7784C110.222 22.2708 109.939 21.5871 109.943 20.7273C109.939 20.0227 110.127 19.4072 110.506 18.8807C110.888 18.3542 111.413 17.9432 112.08 17.6477C112.746 17.3523 113.504 17.2045 114.352 17.2045C115.216 17.2045 115.97 17.3523 116.614 17.6477C117.261 17.9432 117.765 18.3542 118.125 18.8807C118.485 19.4072 118.67 20.017 118.682 20.7102H116.324ZM122.956 17.3636V29H120.496V17.3636H122.956ZM131.293 20.7102C131.247 20.2519 131.052 19.8958 130.707 19.642C130.363 19.3883 129.895 19.2614 129.304 19.2614C128.902 19.2614 128.563 19.3182 128.287 19.4318C128.01 19.5417 127.798 19.6951 127.651 19.892C127.507 20.089 127.435 20.3125 127.435 20.5625C127.427 20.7708 127.471 20.9527 127.565 21.108C127.664 21.2633 127.798 21.3977 127.969 21.5114C128.139 21.6212 128.336 21.7178 128.56 21.8011C128.783 21.8807 129.022 21.9489 129.276 22.0057L130.321 22.2557C130.829 22.3693 131.295 22.5208 131.719 22.7102C132.143 22.8996 132.51 23.1326 132.821 23.4091C133.132 23.6856 133.372 24.0114 133.543 24.3864C133.717 24.7614 133.806 25.1913 133.81 25.6761C133.806 26.3883 133.624 27.0057 133.264 27.5284C132.908 28.0473 132.393 28.4508 131.719 28.7386C131.048 29.0227 130.24 29.1648 129.293 29.1648C128.353 29.1648 127.535 29.0208 126.838 28.733C126.145 28.4451 125.603 28.0189 125.213 27.4545C124.827 26.8864 124.624 26.1837 124.605 25.3466H126.986C127.012 25.7367 127.124 26.0625 127.321 26.3239C127.522 26.5814 127.789 26.7765 128.122 26.9091C128.459 27.0379 128.84 27.1023 129.264 27.1023C129.681 27.1023 130.043 27.0417 130.349 26.9205C130.66 26.7992 130.901 26.6307 131.071 26.4148C131.241 26.1989 131.327 25.9508 131.327 25.6705C131.327 25.4091 131.249 25.1894 131.094 25.0114C130.942 24.8333 130.719 24.6818 130.423 24.5568C130.132 24.4318 129.774 24.3182 129.349 24.2159L128.082 23.8977C127.101 23.6591 126.327 23.286 125.759 22.7784C125.19 22.2708 124.908 21.5871 124.912 20.7273C124.908 20.0227 125.096 19.4072 125.474 18.8807C125.857 18.3542 126.382 17.9432 127.048 17.6477C127.715 17.3523 128.473 17.2045 129.321 17.2045C130.185 17.2045 130.938 17.3523 131.582 17.6477C132.23 17.9432 132.734 18.3542 133.094 18.8807C133.454 19.4072 133.639 20.017 133.651 20.7102H131.293ZM135.021 19.392V17.3636H144.578V19.392H141.016V29H138.584V19.392H135.021ZM146.152 29V17.3636H153.993V19.392H148.612V22.1648H153.589V24.1932H148.612V26.9716H154.016V29H146.152ZM155.949 17.3636H158.983L162.188 25.1818H162.324L165.528 17.3636H168.562V29H166.176V21.4261H166.08L163.068 28.9432H161.443L158.432 21.3977H158.335V29H155.949V17.3636ZM174.293 29V17.3636H178.952C179.808 17.3636 180.522 17.4905 181.094 17.7443C181.666 17.9981 182.096 18.3504 182.384 18.8011C182.671 19.2481 182.815 19.7633 182.815 20.3466C182.815 20.8011 182.724 21.2008 182.543 21.5455C182.361 21.8864 182.111 22.1667 181.793 22.3864C181.478 22.6023 181.118 22.7557 180.713 22.8466V22.9602C181.156 22.9792 181.571 23.1042 181.957 23.3352C182.348 23.5663 182.664 23.8902 182.906 24.3068C183.149 24.7197 183.27 25.2121 183.27 25.7841C183.27 26.4015 183.116 26.9527 182.81 27.4375C182.507 27.9186 182.058 28.2992 181.463 28.5795C180.868 28.8598 180.135 29 179.264 29H174.293ZM176.753 26.9886H178.759C179.444 26.9886 179.944 26.858 180.259 26.5966C180.573 26.3314 180.73 25.9792 180.73 25.5398C180.73 25.2178 180.652 24.9337 180.497 24.6875C180.342 24.4413 180.12 24.2481 179.832 24.108C179.548 23.9678 179.209 23.8977 178.815 23.8977H176.753V26.9886ZM176.753 22.233H178.577C178.914 22.233 179.213 22.1742 179.474 22.0568C179.74 21.9356 179.948 21.7652 180.099 21.5455C180.255 21.3258 180.332 21.0625 180.332 20.7557C180.332 20.3352 180.183 19.9962 179.884 19.7386C179.588 19.4811 179.168 19.3523 178.622 19.3523H176.753V22.233ZM184.871 29V17.3636H192.712V19.392H187.331V22.1648H192.308V24.1932H187.331V26.9716H192.734V29H184.871ZM194.668 29V17.3636H199.327C200.183 17.3636 200.897 17.4905 201.469 17.7443C202.041 17.9981 202.471 18.3504 202.759 18.8011C203.046 19.2481 203.19 19.7633 203.19 20.3466C203.19 20.8011 203.099 21.2008 202.918 21.5455C202.736 21.8864 202.486 22.1667 202.168 22.3864C201.853 22.6023 201.493 22.7557 201.088 22.8466V22.9602C201.531 22.9792 201.946 23.1042 202.332 23.3352C202.723 23.5663 203.039 23.8902 203.281 24.3068C203.524 24.7197 203.645 25.2121 203.645 25.7841C203.645 26.4015 203.491 26.9527 203.185 27.4375C202.882 27.9186 202.433 28.2992 201.838 28.5795C201.243 28.8598 200.51 29 199.639 29H194.668ZM197.128 26.9886H199.134C199.819 26.9886 200.319 26.858 200.634 26.5966C200.948 26.3314 201.105 25.9792 201.105 25.5398C201.105 25.2178 201.027 24.9337 200.872 24.6875C200.717 24.4413 200.495 24.2481 200.207 24.108C199.923 23.9678 199.584 23.8977 199.19 23.8977H197.128V26.9886ZM197.128 22.233H198.952C199.289 22.233 199.588 22.1742 199.849 22.0568C200.115 21.9356 200.323 21.7652 200.474 21.5455C200.63 21.3258 200.707 21.0625 200.707 20.7557C200.707 20.3352 200.558 19.9962 200.259 19.7386C199.963 19.4811 199.543 19.3523 198.997 19.3523H197.128V22.233ZM207.251 29H204.615L208.632 17.3636H211.803L215.814 29H213.178L210.263 20.0227H210.172L207.251 29ZM207.087 24.4261H213.314V26.3466H207.087V24.4261ZM223.261 20.7102C223.216 20.2519 223.021 19.8958 222.676 19.642C222.331 19.3883 221.864 19.2614 221.273 19.2614C220.871 19.2614 220.532 19.3182 220.256 19.4318C219.979 19.5417 219.767 19.6951 219.619 19.892C219.475 20.089 219.403 20.3125 219.403 20.5625C219.396 20.7708 219.439 20.9527 219.534 21.108C219.633 21.2633 219.767 21.3977 219.938 21.5114C220.108 21.6212 220.305 21.7178 220.528 21.8011C220.752 21.8807 220.991 21.9489 221.244 22.0057L222.29 22.2557C222.797 22.3693 223.263 22.5208 223.688 22.7102C224.112 22.8996 224.479 23.1326 224.79 23.4091C225.1 23.6856 225.341 24.0114 225.511 24.3864C225.686 24.7614 225.775 25.1913 225.778 25.6761C225.775 26.3883 225.593 27.0057 225.233 27.5284C224.877 28.0473 224.362 28.4508 223.688 28.7386C223.017 29.0227 222.208 29.1648 221.261 29.1648C220.322 29.1648 219.504 29.0208 218.807 28.733C218.114 28.4451 217.572 28.0189 217.182 27.4545C216.795 26.8864 216.593 26.1837 216.574 25.3466H218.955C218.981 25.7367 219.093 26.0625 219.29 26.3239C219.491 26.5814 219.758 26.7765 220.091 26.9091C220.428 27.0379 220.809 27.1023 221.233 27.1023C221.65 27.1023 222.011 27.0417 222.318 26.9205C222.629 26.7992 222.869 26.6307 223.04 26.4148C223.21 26.1989 223.295 25.9508 223.295 25.6705C223.295 25.4091 223.218 25.1894 223.062 25.0114C222.911 24.8333 222.688 24.6818 222.392 24.5568C222.1 24.4318 221.742 24.3182 221.318 24.2159L220.051 23.8977C219.07 23.6591 218.295 23.286 217.727 22.7784C217.159 22.2708 216.877 21.5871 216.881 20.7273C216.877 20.0227 217.064 19.4072 217.443 18.8807C217.826 18.3542 218.35 17.9432 219.017 17.6477C219.684 17.3523 220.441 17.2045 221.29 17.2045C222.153 17.2045 222.907 17.3523 223.551 17.6477C224.199 17.9432 224.703 18.3542 225.062 18.8807C225.422 19.4072 225.608 20.017 225.619 20.7102H223.261ZM230.693 19.392V17.3636H240.25V19.392H236.688V29H234.256V19.392H230.693ZM242.408 29H239.771L243.788 17.3636H246.959L250.97 29H248.334L245.419 20.0227H245.328L242.408 29ZM242.243 24.4261H248.47V26.3466H242.243V24.4261ZM262.104 17.3636V29H259.979L254.916 21.6761H254.831V29H252.371V17.3636H254.53L259.553 24.6818H259.655V17.3636H262.104ZM271.852 21.125C271.773 20.8485 271.661 20.6042 271.517 20.392C271.373 20.1761 271.197 19.9943 270.989 19.8466C270.784 19.6951 270.549 19.5795 270.284 19.5C270.023 19.4205 269.733 19.3807 269.415 19.3807C268.82 19.3807 268.297 19.5284 267.847 19.8239C267.4 20.1193 267.051 20.5492 266.801 21.1136C266.551 21.6742 266.426 22.3598 266.426 23.1705C266.426 23.9811 266.549 24.6705 266.795 25.2386C267.042 25.8068 267.39 26.2405 267.841 26.5398C268.292 26.8352 268.824 26.983 269.438 26.983C269.994 26.983 270.47 26.8845 270.864 26.6875C271.261 26.4867 271.564 26.2045 271.773 25.8409C271.985 25.4773 272.091 25.0473 272.091 24.5511L272.591 24.625H269.591V22.7727H274.46V24.2386C274.46 25.2614 274.244 26.1402 273.812 26.875C273.381 27.6061 272.786 28.1705 272.028 28.5682C271.271 28.9621 270.403 29.1591 269.426 29.1591C268.335 29.1591 267.377 28.9186 266.551 28.4375C265.725 27.9527 265.081 27.2652 264.619 26.375C264.161 25.4811 263.932 24.4205 263.932 23.1932C263.932 22.25 264.068 21.4091 264.341 20.6705C264.617 19.928 265.004 19.2992 265.5 18.7841C265.996 18.2689 266.574 17.8769 267.233 17.608C267.892 17.339 268.606 17.2045 269.375 17.2045C270.034 17.2045 270.648 17.3011 271.216 17.4943C271.784 17.6837 272.288 17.9527 272.727 18.3011C273.17 18.6496 273.532 19.0644 273.812 19.5455C274.093 20.0227 274.273 20.5492 274.352 21.125H271.852ZM284.024 21.125C283.945 20.8485 283.833 20.6042 283.689 20.392C283.545 20.1761 283.369 19.9943 283.161 19.8466C282.956 19.6951 282.721 19.5795 282.456 19.5C282.195 19.4205 281.905 19.3807 281.587 19.3807C280.992 19.3807 280.469 19.5284 280.018 19.8239C279.571 20.1193 279.223 20.5492 278.973 21.1136C278.723 21.6742 278.598 22.3598 278.598 23.1705C278.598 23.9811 278.721 24.6705 278.967 25.2386C279.214 25.8068 279.562 26.2405 280.013 26.5398C280.464 26.8352 280.996 26.983 281.609 26.983C282.166 26.983 282.642 26.8845 283.036 26.6875C283.433 26.4867 283.736 26.2045 283.945 25.8409C284.157 25.4773 284.263 25.0473 284.263 24.5511L284.763 24.625H281.763V22.7727H286.632V24.2386C286.632 25.2614 286.416 26.1402 285.984 26.875C285.553 27.6061 284.958 28.1705 284.2 28.5682C283.443 28.9621 282.575 29.1591 281.598 29.1591C280.507 29.1591 279.549 28.9186 278.723 28.4375C277.897 27.9527 277.253 27.2652 276.791 26.375C276.333 25.4811 276.104 24.4205 276.104 23.1932C276.104 22.25 276.24 21.4091 276.513 20.6705C276.789 19.928 277.176 19.2992 277.672 18.7841C278.168 18.2689 278.746 17.8769 279.405 17.608C280.064 17.339 280.778 17.2045 281.547 17.2045C282.206 17.2045 282.82 17.3011 283.388 17.4943C283.956 17.6837 284.46 17.9527 284.899 18.3011C285.342 18.6496 285.704 19.0644 285.984 19.5455C286.265 20.0227 286.445 20.5492 286.524 21.125H284.024ZM295.668 17.3636H298.128V24.9205C298.128 25.7689 297.925 26.5114 297.52 27.1477C297.118 27.7841 296.556 28.2803 295.832 28.6364C295.109 28.9886 294.266 29.1648 293.304 29.1648C292.338 29.1648 291.493 28.9886 290.77 28.6364C290.046 28.2803 289.484 27.7841 289.082 27.1477C288.681 26.5114 288.48 25.7689 288.48 24.9205V17.3636H290.94V24.7102C290.94 25.1534 291.037 25.5473 291.23 25.892C291.427 26.2367 291.704 26.5076 292.06 26.7045C292.416 26.9015 292.83 27 293.304 27C293.781 27 294.196 26.9015 294.548 26.7045C294.904 26.5076 295.179 26.2367 295.372 25.892C295.569 25.5473 295.668 25.1534 295.668 24.7102V17.3636ZM309.885 17.3636V29H307.76L302.697 21.6761H302.612V29H300.152V17.3636H302.311L307.334 24.6818H307.436V17.3636H309.885ZM319.634 21.125C319.554 20.8485 319.442 20.6042 319.298 20.392C319.154 20.1761 318.978 19.9943 318.77 19.8466C318.565 19.6951 318.33 19.5795 318.065 19.5C317.804 19.4205 317.514 19.3807 317.196 19.3807C316.601 19.3807 316.079 19.5284 315.628 19.8239C315.181 20.1193 314.832 20.5492 314.582 21.1136C314.332 21.6742 314.207 22.3598 314.207 23.1705C314.207 23.9811 314.33 24.6705 314.577 25.2386C314.823 25.8068 315.171 26.2405 315.622 26.5398C316.073 26.8352 316.605 26.983 317.219 26.983C317.776 26.983 318.251 26.8845 318.645 26.6875C319.043 26.4867 319.346 26.2045 319.554 25.8409C319.766 25.4773 319.872 25.0473 319.872 24.5511L320.372 24.625H317.372V22.7727H322.241V24.2386C322.241 25.2614 322.026 26.1402 321.594 26.875C321.162 27.6061 320.567 28.1705 319.81 28.5682C319.052 28.9621 318.185 29.1591 317.207 29.1591C316.116 29.1591 315.158 28.9186 314.332 28.4375C313.507 27.9527 312.863 27.2652 312.401 26.375C311.942 25.4811 311.713 24.4205 311.713 23.1932C311.713 22.25 311.849 21.4091 312.122 20.6705C312.399 19.928 312.785 19.2992 313.281 18.7841C313.777 18.2689 314.355 17.8769 315.014 17.608C315.673 17.339 316.387 17.2045 317.156 17.2045C317.815 17.2045 318.429 17.3011 318.997 17.4943C319.565 17.6837 320.069 17.9527 320.509 18.3011C320.952 18.6496 321.313 19.0644 321.594 19.5455C321.874 20.0227 322.054 20.5492 322.134 21.125H319.634ZM325.736 29H323.099L327.116 17.3636H330.287L334.298 29H331.662L328.747 20.0227H328.656L325.736 29ZM325.571 24.4261H331.798V26.3466H325.571V24.4261ZM345.432 17.3636V29H343.307L338.244 21.6761H338.159V29H335.699V17.3636H337.858L342.881 24.6818H342.983V17.3636H345.432ZM109.568 38.392V36.3636H119.125V38.392H115.562V48H113.131V38.392H109.568ZM127.886 36.3636H130.347V43.9205C130.347 44.7689 130.144 45.5114 129.739 46.1477C129.337 46.7841 128.775 47.2803 128.051 47.6364C127.328 47.9886 126.485 48.1648 125.523 48.1648C124.557 48.1648 123.712 47.9886 122.989 47.6364C122.265 47.2803 121.703 46.7841 121.301 46.1477C120.9 45.5114 120.699 44.7689 120.699 43.9205V36.3636H123.159V43.7102C123.159 44.1534 123.256 44.5473 123.449 44.892C123.646 45.2367 123.922 45.5076 124.278 45.7045C124.634 45.9015 125.049 46 125.523 46C126 46 126.415 45.9015 126.767 45.7045C127.123 45.5076 127.398 45.2367 127.591 44.892C127.788 44.5473 127.886 44.1534 127.886 43.7102V36.3636ZM140.087 40.125C140.007 39.8485 139.895 39.6042 139.751 39.392C139.607 39.1761 139.431 38.9943 139.223 38.8466C139.018 38.6951 138.784 38.5795 138.518 38.5C138.257 38.4205 137.967 38.3807 137.649 38.3807C137.054 38.3807 136.532 38.5284 136.081 38.8239C135.634 39.1193 135.286 39.5492 135.036 40.1136C134.786 40.6742 134.661 41.3598 134.661 42.1705C134.661 42.9811 134.784 43.6705 135.03 44.2386C135.276 44.8068 135.625 45.2405 136.075 45.5398C136.526 45.8352 137.058 45.983 137.672 45.983C138.229 45.983 138.704 45.8845 139.098 45.6875C139.496 45.4867 139.799 45.2045 140.007 44.8409C140.219 44.4773 140.325 44.0473 140.325 43.5511L140.825 43.625H137.825V41.7727H142.695V43.2386C142.695 44.2614 142.479 45.1402 142.047 45.875C141.615 46.6061 141.02 47.1705 140.263 47.5682C139.505 47.9621 138.638 48.1591 137.661 48.1591C136.57 48.1591 135.611 47.9186 134.786 47.4375C133.96 46.9527 133.316 46.2652 132.854 45.375C132.395 44.4811 132.166 43.4205 132.166 42.1932C132.166 41.25 132.303 40.4091 132.575 39.6705C132.852 38.928 133.238 38.2992 133.734 37.7841C134.231 37.2689 134.808 36.8769 135.467 36.608C136.126 36.339 136.84 36.2045 137.609 36.2045C138.268 36.2045 138.882 36.3011 139.45 36.4943C140.018 36.6837 140.522 36.9527 140.962 37.3011C141.405 37.6496 141.767 38.0644 142.047 38.5455C142.327 39.0227 142.507 39.5492 142.587 40.125H140.087ZM146.189 48H143.553L147.57 36.3636H150.74L154.751 48H152.115L149.2 39.0227H149.109L146.189 48ZM146.024 43.4261H152.251V45.3466H146.024V43.4261ZM162.199 39.7102C162.153 39.2519 161.958 38.8958 161.614 38.642C161.269 38.3883 160.801 38.2614 160.21 38.2614C159.809 38.2614 159.47 38.3182 159.193 38.4318C158.917 38.5417 158.705 38.6951 158.557 38.892C158.413 39.089 158.341 39.3125 158.341 39.5625C158.333 39.7708 158.377 39.9527 158.472 40.108C158.57 40.2633 158.705 40.3977 158.875 40.5114C159.045 40.6212 159.242 40.7178 159.466 40.8011C159.689 40.8807 159.928 40.9489 160.182 41.0057L161.227 41.2557C161.735 41.3693 162.201 41.5208 162.625 41.7102C163.049 41.8996 163.417 42.1326 163.727 42.4091C164.038 42.6856 164.278 43.0114 164.449 43.3864C164.623 43.7614 164.712 44.1913 164.716 44.6761C164.712 45.3883 164.53 46.0057 164.17 46.5284C163.814 47.0473 163.299 47.4508 162.625 47.7386C161.955 48.0227 161.146 48.1648 160.199 48.1648C159.259 48.1648 158.441 48.0208 157.744 47.733C157.051 47.4451 156.509 47.0189 156.119 46.4545C155.733 45.8864 155.53 45.1837 155.511 44.3466H157.892C157.919 44.7367 158.03 45.0625 158.227 45.3239C158.428 45.5814 158.695 45.7765 159.028 45.9091C159.366 46.0379 159.746 46.1023 160.17 46.1023C160.587 46.1023 160.949 46.0417 161.256 45.9205C161.566 45.7992 161.807 45.6307 161.977 45.4148C162.148 45.1989 162.233 44.9508 162.233 44.6705C162.233 44.4091 162.155 44.1894 162 44.0114C161.848 43.8333 161.625 43.6818 161.33 43.5568C161.038 43.4318 160.68 43.3182 160.256 43.2159L158.989 42.8977C158.008 42.6591 157.233 42.286 156.665 41.7784C156.097 41.2708 155.814 40.5871 155.818 39.7273C155.814 39.0227 156.002 38.4072 156.381 37.8807C156.763 37.3542 157.288 36.9432 157.955 36.6477C158.621 36.3523 159.379 36.2045 160.227 36.2045C161.091 36.2045 161.845 36.3523 162.489 36.6477C163.136 36.9432 163.64 37.3542 164 37.8807C164.36 38.4072 164.545 39.017 164.557 39.7102H162.199ZM172.08 48H169.443L173.46 36.3636H176.631L180.642 48H178.006L175.091 39.0227H175L172.08 48ZM171.915 43.4261H178.142V45.3466H171.915V43.4261ZM182.043 48V36.3636H184.503V41.4943H184.656L188.844 36.3636H191.793L187.474 41.5739L191.844 48H188.901L185.713 43.2159L184.503 44.6932V48H182.043ZM193.074 48V36.3636H195.534V41.1648H200.528V36.3636H202.983V48H200.528V43.1932H195.534V48H193.074ZM207.472 36.3636V48H205.011V36.3636H207.472ZM209.496 48V36.3636H214.087C214.965 36.3636 215.715 36.5208 216.337 36.8352C216.962 37.1458 217.437 37.5871 217.763 38.1591C218.092 38.7273 218.257 39.3958 218.257 40.1648C218.257 40.9375 218.09 41.6023 217.757 42.1591C217.424 42.7121 216.941 43.1364 216.308 43.4318C215.679 43.7273 214.918 43.875 214.024 43.875H210.95V41.8977H213.626C214.096 41.8977 214.486 41.8333 214.797 41.7045C215.107 41.5758 215.339 41.3826 215.49 41.125C215.645 40.8674 215.723 40.5473 215.723 40.1648C215.723 39.7784 215.645 39.4527 215.49 39.1875C215.339 38.9223 215.106 38.7216 214.791 38.5852C214.481 38.4451 214.089 38.375 213.615 38.375H211.956V48H209.496ZM215.78 42.7045L218.672 48H215.956L213.126 42.7045H215.78Z" fill="white"/>
<g clip-path="url(#clip0_54_2)">
<path d="M48.4684 0.437157C48.5656 0.472286 48.6628 0.507415 48.7629 0.543609C49.0847 0.660064 49.4062 0.777403 49.7277 0.894717C49.9558 0.977376 50.1838 1.05996 50.4119 1.14248C50.7684 1.27143 51.1248 1.40041 51.4811 1.52969C52.619 1.94255 53.7587 2.35065 54.8986 2.75785C55.3468 2.91796 55.7949 3.07824 56.243 3.23852C56.5816 3.35961 56.9201 3.48068 57.2587 3.60174C58.2675 3.9625 59.2762 4.32346 60.285 4.68441C60.8444 4.88458 61.4039 5.08473 61.9633 5.28488C62.1871 5.36496 62.4109 5.44504 62.6347 5.52511C62.8009 5.58457 62.8009 5.58457 62.9704 5.64523C80.0919 11.771 80.0919 11.771 80.4276 11.8911C80.6514 11.9713 80.8753 12.0514 81.0992 12.1315C81.6575 12.3312 82.2157 12.5309 82.774 12.7307C83.7962 13.0964 84.8185 13.4622 85.8408 13.8277C88.5295 14.7892 91.2177 15.752 93.9041 16.7197C93.9041 16.8149 93.9041 16.91 93.9041 17.008C93.8409 17.0304 93.7777 17.0529 93.7125 17.076C90.6213 18.1729 87.5312 19.273 84.4446 20.3831C84.3415 20.4201 84.2383 20.4572 84.132 20.4954C84.0292 20.5324 83.9263 20.5694 83.8203 20.6076C82.6159 21.0406 81.4109 21.4717 80.2058 21.9027C80.0944 21.9425 79.9831 21.9823 79.8683 22.0233C79.3049 22.2248 78.7415 22.4263 78.1781 22.6278C77.1693 22.9886 76.1605 23.3495 75.1518 23.7105C74.5924 23.9106 74.0329 24.1108 73.4735 24.3109C73.2497 24.391 73.0259 24.4711 72.8021 24.5512C68.7735 25.9925 64.7449 27.4339 60.7164 28.8753C60.6056 28.9149 60.4948 28.9545 60.3807 28.9954C60.1568 29.0755 59.9329 29.1556 59.7089 29.2357C59.1509 29.4354 58.5929 29.635 58.0349 29.8347C57.01 30.2014 55.9851 30.5681 54.96 30.9344C54.6079 31.0603 54.2557 31.1863 53.9035 31.3122C53.4473 31.4753 52.991 31.6382 52.5347 31.8009C51.5422 32.155 50.5511 32.5116 49.564 32.8803C49.4016 32.9406 49.2392 33.0009 49.0768 33.0611C48.7856 33.1691 48.4952 33.2789 48.2051 33.39C48.0781 33.4373 47.951 33.4845 47.824 33.5316C47.717 33.5722 47.61 33.6128 47.4998 33.6546C46.8067 33.8195 46.1764 33.5276 45.5317 33.2906C45.4345 33.2555 45.3373 33.2203 45.2371 33.1841C44.9153 33.0677 44.5938 32.9503 44.2724 32.833C44.0443 32.7504 43.8162 32.6678 43.5881 32.5853C43.2317 32.4563 42.8753 32.3273 42.519 32.1981C41.381 31.7852 40.2414 31.3771 39.1014 30.9699C38.6533 30.8098 38.2052 30.6495 37.757 30.4892C37.4185 30.3681 37.08 30.2471 36.7414 30.126C35.7326 29.7652 34.7238 29.4043 33.715 29.0433C33.1556 28.8432 32.5962 28.643 32.0368 28.4429C31.813 28.3628 31.5891 28.2827 31.3653 28.2026C31.2545 28.163 31.1438 28.1234 31.0296 28.0825C30.0225 27.7222 30.0225 27.7222 29.6868 27.6021C29.4628 27.522 29.2389 27.4418 29.0149 27.3617C28.4577 27.1623 27.9005 26.963 27.3433 26.7636C26.3087 26.3934 25.274 26.0232 24.2393 25.6532C23.7586 25.4813 23.278 25.3094 22.7973 25.1375C22.5716 25.0568 22.3458 24.976 22.12 24.8953C20.5968 24.3507 19.0745 23.8035 17.5531 23.2539C17.5531 23.1905 17.5531 23.1271 17.5531 23.0618C18.6261 22.8954 19.6991 22.729 20.7721 22.5627C21.0441 22.5205 21.316 22.4783 21.588 22.4361C23.7563 22.1 25.9245 21.7639 28.0928 21.4281C28.2922 21.3972 28.4916 21.3663 28.691 21.3355C28.7894 21.3202 28.8879 21.305 28.9894 21.2892C29.1876 21.2585 29.3859 21.2278 29.5841 21.1971C30.0777 21.1207 30.5712 21.0443 31.0648 20.9678C33.2607 20.6277 35.4566 20.2871 37.6522 19.9447C38.2693 19.8485 38.8865 19.7526 39.5037 19.6567C40.0366 19.5739 40.5693 19.4907 41.1021 19.407C41.419 19.3574 41.736 19.3082 42.0531 19.2591C42.1933 19.2374 42.3335 19.2154 42.4737 19.1932C44.2309 18.9149 44.2309 18.9149 44.626 19.1596C44.7091 19.248 44.7091 19.248 44.7939 19.3382C45.4841 20.0119 46.2065 20.2101 47.1529 20.2164C47.9313 20.2015 48.6144 19.9475 49.2421 19.4824C49.9567 18.7324 50.3528 17.9184 50.3991 16.8759C50.366 15.8971 50.0115 14.9985 49.3021 14.3175C48.3284 13.5986 47.41 13.4595 46.2327 13.5487C45.4514 13.705 44.817 14.1902 44.3143 14.7979C44.2902 14.8723 44.266 14.9468 44.2411 15.0235C44.1403 15.321 44.0401 15.5196 43.8347 15.7588C43.3433 15.959 42.836 16.0095 42.3134 16.0709C42.1582 16.0924 42.003 16.1144 41.8479 16.1368C41.5226 16.1832 41.1971 16.2273 40.8713 16.2698C40.4045 16.3312 39.9395 16.4014 39.4745 16.4751C39.4001 16.4868 39.3258 16.4986 39.2491 16.5107C39.0978 16.5347 38.9465 16.5587 38.7952 16.5827C38.4022 16.6446 38.0089 16.7044 37.6156 16.7643C37.495 16.7826 37.495 16.7826 37.3719 16.8014C37.2062 16.8267 37.0404 16.8519 36.8746 16.8772C36.4328 16.9445 35.9909 17.0122 35.5491 17.0798C34.1145 17.2994 32.6798 17.5182 31.2451 17.737C30.0604 17.9177 28.8758 18.0986 27.6911 18.2796C27.4937 18.3097 27.2964 18.3399 27.099 18.37C24.5702 18.7562 22.0423 19.1476 19.5161 19.5501C19.091 19.6178 18.6658 19.6852 18.2406 19.7525C18.104 19.7741 17.9674 19.7957 17.8309 19.8173C17.6311 19.8489 17.4313 19.8806 17.2315 19.9122C16.4131 20.0417 15.5951 20.1731 14.7773 20.3063C14.3201 20.3804 13.8626 20.4528 13.4051 20.5246C13.1975 20.5576 12.9901 20.5914 12.7827 20.6259C12.5034 20.6724 12.2238 20.7163 11.944 20.7595C11.8647 20.7734 11.7853 20.7873 11.7036 20.8016C11.0983 20.8907 10.641 20.7722 10.0715 20.5634C9.96359 20.5272 9.85573 20.4911 9.74459 20.4539C9.64725 20.4193 9.5499 20.3847 9.4496 20.3491C9.33681 20.3092 9.22401 20.2693 9.1078 20.2281C8.98702 20.1851 8.86624 20.1421 8.74546 20.0991C8.6171 20.0535 8.48873 20.008 8.36036 19.9625C8.01958 19.8416 7.67891 19.7205 7.33826 19.5992C7.05708 19.4992 6.77583 19.3993 6.49458 19.2994C4.35967 18.5413 2.22641 17.7786 0.0959473 17.008C0.0959473 16.9129 0.0959473 16.8178 0.0959473 16.7197C0.159162 16.6973 0.222378 16.6749 0.287509 16.6518C3.37877 15.5548 6.46884 14.4547 9.55546 13.3447C9.6586 13.3076 9.76174 13.2705 9.86801 13.2323C9.97088 13.1953 10.0738 13.1583 10.1798 13.1202C11.3841 12.6872 12.5892 12.2561 13.7943 11.8251C13.9056 11.7853 14.017 11.7454 14.1317 11.7044C14.6951 11.5029 15.2585 11.3014 15.8219 11.0999C16.8308 10.7392 17.8395 10.3782 18.8483 10.0173C19.4077 9.81711 19.9671 9.61696 20.5266 9.41681C20.7504 9.33673 20.9742 9.25665 21.198 9.17658C25.2266 7.73521 29.2551 6.29384 33.2837 4.85247C33.4499 4.79302 33.4499 4.79302 33.6194 4.73237C33.8433 4.65226 34.0672 4.57215 34.2911 4.49204C34.8491 4.29238 35.4072 4.09272 35.9652 3.89304C36.9901 3.52631 38.015 3.15965 39.04 2.7933C39.3922 2.66742 39.7444 2.54148 40.0965 2.41554C40.5528 2.25242 41.009 2.08956 41.4654 1.92688C42.4578 1.57276 43.449 1.21613 44.4361 0.847422C44.5985 0.787146 44.7609 0.726893 44.9233 0.666664C45.2145 0.55865 45.5049 0.448799 45.795 0.337711C45.922 0.290458 46.049 0.243275 46.1761 0.196179C46.3365 0.135271 46.3365 0.135271 46.5002 0.0731321C47.1933 -0.0917535 47.8236 0.200101 48.4684 0.437157Z" fill="white"/>
<path d="M18.1285 26.9058C18.2672 26.9361 18.4059 26.9666 18.5445 26.9971C18.6218 27.0141 18.699 27.031 18.7785 27.0485C19.0069 27.1014 19.2246 27.1676 19.4448 27.248C19.5236 27.2765 19.6025 27.305 19.6837 27.3344C19.7671 27.3651 19.8504 27.3958 19.9363 27.4275C20.0269 27.4604 20.1174 27.4932 20.2106 27.5271C20.4068 27.5983 20.6029 27.6699 20.7989 27.7416C21.2252 27.8976 21.652 28.0524 22.0787 28.2072C22.3045 28.2892 22.5302 28.3712 22.7559 28.4533C23.9815 28.8987 25.2094 29.3378 26.4374 29.7765C26.6631 29.8572 26.8888 29.9379 27.1145 30.0185C27.5691 30.1811 28.0238 30.3436 28.4784 30.5061C29.4889 30.8673 30.4993 31.2288 31.5097 31.5904C32.069 31.7905 32.6284 31.9907 33.1877 32.1908C33.4115 32.2709 33.6353 32.3509 33.8591 32.431C34.0253 32.4905 34.0253 32.4905 34.1948 32.5511C35.202 32.9115 35.202 32.9115 35.5376 33.0316C35.7616 33.1117 35.9856 33.1918 36.2097 33.272C36.7662 33.4711 37.3227 33.6702 37.8793 33.8694C38.9219 34.2425 39.9645 34.6155 41.0074 34.9879C41.4965 35.1625 41.9855 35.3372 42.4745 35.512C42.7062 35.5947 42.9379 35.6774 43.1696 35.7601C43.3879 35.838 43.6063 35.916 43.8246 35.994C44.0299 36.0673 44.2352 36.1405 44.4406 36.2136C44.8782 36.37 45.314 36.5288 45.7459 36.7008C45.8165 36.7286 45.887 36.7565 45.9598 36.7851C46.1411 36.8574 46.3217 36.9314 46.5022 37.0055C47.1573 37.1895 47.777 36.8712 48.3941 36.6508C48.4944 36.6154 48.5946 36.58 48.6979 36.5435C49.0293 36.4263 49.3605 36.3085 49.6916 36.1906C49.9255 36.1077 50.1593 36.0249 50.3931 35.9421C52.4907 35.1984 54.5851 34.4458 56.6791 33.6919C57.8963 33.2538 59.1145 32.8184 60.3326 32.383C62.1796 31.7226 64.026 31.0606 65.8719 30.3971C67.0944 29.9578 68.3172 29.5191 69.5404 29.0817C69.6005 29.0602 69.6606 29.0387 69.7226 29.0165C70.3606 28.7884 70.9986 28.5604 71.6367 28.3325C71.8482 28.2569 72.0596 28.1814 72.2711 28.1058C72.3721 28.0697 72.4732 28.0336 72.5774 27.9964C73.0818 27.8161 73.5855 27.6337 74.0879 27.4479C74.1855 27.4119 74.2831 27.376 74.3836 27.3389C74.5676 27.2708 74.7516 27.2024 74.9353 27.1335C75.0167 27.1035 75.098 27.0734 75.1818 27.0425C75.2528 27.016 75.3238 26.9894 75.3969 26.9621C75.5836 26.9058 75.5836 26.9058 75.8714 26.9058C75.8781 29.5219 75.8832 32.138 75.8863 34.7541C75.8878 35.9688 75.8898 37.1835 75.8931 38.3982C75.8959 39.457 75.8978 40.5159 75.8984 41.5747C75.8988 42.1353 75.8997 42.6958 75.9018 43.2564C75.9038 43.7843 75.9043 44.3121 75.9039 44.84C75.904 45.0335 75.9046 45.227 75.9057 45.4205C75.9071 45.6853 75.9068 45.95 75.906 46.2148C75.9068 46.2908 75.9076 46.3668 75.9085 46.4451C75.9028 47.1609 75.7181 47.8178 75.3019 48.4062C75.2513 48.4778 75.2007 48.5494 75.1486 48.6231C75.1022 48.6863 75.0559 48.7495 75.0081 48.8146C74.9488 48.8978 74.8894 48.981 74.8283 49.0668C72.5979 51.5641 68.9619 52.9454 65.8959 54.0035C65.7996 54.0371 65.7032 54.0708 65.604 54.1054C60.9092 55.7312 55.9671 56.5149 51.0285 56.8862C50.8922 56.8968 50.8922 56.8968 50.7531 56.9076C42.5782 57.5149 33.7631 56.3432 20.2222 50.0074C19.9978 49.8072 19.7808 49.6028 19.5673 49.3911C19.4802 49.3098 19.3932 49.2286 19.3035 49.1449C18.4807 48.2519 18.1125 47.4831 18.117 46.2611C18.1169 46.1782 18.1168 46.0954 18.1167 46.0101C18.1166 45.7327 18.1171 45.4554 18.1176 45.178C18.1176 44.9791 18.1176 44.7802 18.1176 44.5814C18.1176 44.0414 18.1181 43.5014 18.1188 42.9614C18.1194 42.3972 18.1194 41.8329 18.1196 41.2686C18.1199 40.2 18.1206 39.1314 18.1216 38.0629C18.1227 36.8463 18.1232 35.6298 18.1237 34.4133C18.1247 31.9108 18.1264 29.4083 18.1285 26.9058Z" fill="white"/>
<path d="M12.4693 21.9087C13.6088 21.9087 14.7484 21.9087 15.9224 21.9087C15.9224 32.0876 15.9224 42.2666 15.9224 52.754C16.0807 52.8174 16.2389 52.8808 16.402 52.9461C17.0936 53.5564 17.5911 54.3631 17.6684 55.2951C17.6878 56.4068 17.3917 57.2892 16.6294 58.1114C15.862 58.8232 14.9713 59.0369 13.9516 59.0265C13.0316 58.9525 12.265 58.533 11.6364 57.8682C11.012 57.1053 10.7649 56.2512 10.8031 55.2715C10.9185 54.2748 11.3643 53.6262 12.0857 52.9461C12.1806 52.8827 12.2756 52.8193 12.3734 52.754C12.4173 52.5231 12.4173 52.5231 12.4103 52.2486C12.4112 52.1408 12.4121 52.0329 12.4131 51.9218C12.4126 51.8024 12.4121 51.6829 12.4117 51.5599C12.4123 51.4337 12.4129 51.3076 12.4136 51.1777C12.4153 50.8264 12.4153 50.4752 12.4149 50.1239C12.4149 49.7456 12.4165 49.3672 12.4178 48.9889C12.42 48.333 12.4212 47.6771 12.4216 47.0212C12.4222 46.0729 12.4244 45.1246 12.427 44.1763C12.4312 42.6378 12.434 41.0994 12.4361 39.5609C12.4381 38.0662 12.4407 36.5714 12.4442 35.0767C12.4444 34.9846 12.4446 34.8925 12.4448 34.7976C12.4459 34.3357 12.4469 33.8737 12.448 33.4118C12.457 29.5774 12.4637 25.7431 12.4693 21.9087Z" fill="#FFAF01"/>
<path d="M18.5123 23.0619C18.4173 23.0936 18.3224 23.1253 18.2245 23.158C18.1929 23.2214 18.1612 23.2849 18.1286 23.3502C17.8437 23.3026 17.8437 23.3026 17.5531 23.2541C17.5531 23.1907 17.5531 23.1273 17.5531 23.0619C17.9045 22.9899 18.1692 22.943 18.5123 23.0619Z" fill="white"/>
</g>
<defs>
<clipPath id="clip0_54_2">
<rect width="94" height="59" fill="white"/>
</clipPath>
</defs>
</svg>
