<svg width="319" height="200" viewBox="0 0 319 200" fill="none" xmlns="http://www.w3.org/2000/svg">
<g clip-path="url(#clip0_608_201)">
<path d="M164.483 1.48148C164.813 1.60048 165.143 1.71948 165.482 1.84209C166.575 2.23658 167.666 2.63407 168.757 3.03147C169.531 3.31148 170.305 3.59124 171.079 3.87075C172.288 4.30759 173.498 4.74452 174.707 5.18247C178.569 6.581 182.436 7.96345 186.305 9.34287C187.826 9.88523 189.346 10.4282 190.867 10.9711C192.016 11.3813 193.165 11.7914 194.314 12.2015C197.737 13.4236 201.161 14.6464 204.584 15.8691C206.483 16.5472 208.381 17.2252 210.28 17.9032C211.039 18.1745 211.799 18.4457 212.558 18.717C213.122 18.9184 213.122 18.9184 213.697 19.1239C271.801 39.8752 271.801 39.8752 272.94 40.282C273.7 40.5534 274.46 40.8247 275.22 41.0961C277.114 41.7727 279.009 42.4493 280.903 43.126C284.372 44.365 287.841 45.6039 291.311 46.8423C300.435 50.0993 309.558 53.3607 318.674 56.6389C318.674 56.9612 318.674 57.2834 318.674 57.6155C318.46 57.6914 318.245 57.7674 318.024 57.8457C307.534 61.5617 297.047 65.2883 286.572 69.0485C286.222 69.1741 285.872 69.2997 285.512 69.4292C285.163 69.5545 284.814 69.6799 284.454 69.809C280.367 71.2758 276.277 72.7361 272.188 74.1961C271.81 74.331 271.432 74.466 271.042 74.6049C269.13 75.2876 267.218 75.9701 265.306 76.6526C261.883 77.8746 258.46 79.0974 255.036 80.3201C253.138 80.9982 251.239 81.6762 249.341 82.3542C248.581 82.6255 247.822 82.8968 247.062 83.168C233.391 88.0507 219.719 92.9333 206.048 97.816C205.672 97.9502 205.296 98.0845 204.909 98.2228C204.149 98.4942 203.389 98.7656 202.629 99.0369C200.735 99.7133 198.842 100.39 196.948 101.066C193.47 102.308 189.992 103.55 186.513 104.791C185.318 105.218 184.123 105.644 182.928 106.071C181.38 106.624 179.831 107.175 178.282 107.726C174.914 108.926 171.551 110.134 168.201 111.383C167.65 111.587 167.099 111.791 166.548 111.995C165.559 112.361 164.574 112.733 163.589 113.11C163.158 113.27 162.727 113.43 162.296 113.589C161.933 113.727 161.57 113.864 161.196 114.006C158.844 114.565 156.705 113.576 154.517 112.773C154.187 112.654 153.857 112.535 153.517 112.412C152.425 112.018 151.334 111.62 150.243 111.223C149.469 110.943 148.695 110.663 147.921 110.384C146.712 109.947 145.502 109.51 144.293 109.072C140.431 107.673 136.564 106.291 132.695 104.912C131.174 104.369 129.653 103.826 128.133 103.283C126.984 102.873 125.835 102.463 124.686 102.053C121.262 100.831 117.839 99.608 114.416 98.3853C112.517 97.7072 110.619 97.0292 108.72 96.3512C107.961 96.0799 107.201 95.8087 106.442 95.5374C106.066 95.4031 105.69 95.2689 105.302 95.1305C101.885 93.9099 101.885 93.9099 100.745 93.503C99.9855 93.2316 99.2254 92.9601 98.4654 92.6887C96.5744 92.0134 94.6835 91.338 92.7925 90.6626C89.2814 89.4086 85.7702 88.1546 82.2588 86.9012C80.6276 86.3189 78.9964 85.7366 77.3653 85.1542C76.5991 84.8807 75.8329 84.6072 75.0667 84.3338C69.8974 82.489 64.7314 80.6354 59.5683 78.7736C59.5683 78.5588 59.5683 78.3439 59.5683 78.1226C63.2096 77.559 66.8509 76.9954 70.4922 76.4319C71.4153 76.289 72.3383 76.1462 73.2614 76.0033C80.6195 74.8645 87.9776 73.7262 95.3359 72.5886C96.0126 72.484 96.6893 72.3794 97.366 72.2748C97.7002 72.2231 98.0344 72.1714 98.3787 72.1182C99.0515 72.0142 99.7243 71.9102 100.397 71.8062C102.072 71.5472 103.747 71.2883 105.422 71.0294C112.874 69.8773 120.326 68.7234 127.777 67.5634C129.871 67.2376 131.966 66.9127 134.06 66.588C135.869 66.3076 137.677 66.0255 139.484 65.7421C140.56 65.5739 141.636 65.4073 142.712 65.2412C143.188 65.1674 143.664 65.093 144.139 65.0177C150.103 64.0751 150.103 64.0751 151.444 64.9038C151.726 65.2034 151.726 65.2034 152.013 65.5091C154.355 67.7911 156.807 68.4626 160.019 68.4841C162.66 68.4334 164.978 67.5731 167.109 65.9974C169.534 63.4569 170.878 60.6994 171.035 57.1679C170.923 53.8524 169.72 50.8082 167.312 48.5012C164.008 46.0661 160.891 45.5949 156.896 45.8971C154.245 46.4266 152.092 48.0701 150.386 50.1287C150.304 50.3809 150.222 50.633 150.137 50.8928C149.795 51.9008 149.455 52.5734 148.758 53.3838C147.09 54.0619 145.369 54.233 143.595 54.4409C143.068 54.5138 142.542 54.5882 142.016 54.6641C140.912 54.8214 139.807 54.9709 138.701 55.1147C137.117 55.3229 135.539 55.5605 133.961 55.8101C133.709 55.85 133.456 55.8898 133.196 55.9309C132.683 56.0121 132.169 56.0933 131.656 56.1746C130.322 56.3842 128.988 56.5869 127.653 56.7897C127.243 56.852 127.243 56.852 126.826 56.9155C126.263 57.0011 125.701 57.0867 125.138 57.1722C123.639 57.4004 122.139 57.6296 120.64 57.8587C115.772 58.6025 110.903 59.3437 106.034 60.085C102.013 60.6972 97.9931 61.3097 93.9728 61.9228C93.303 62.025 92.6332 62.1271 91.9634 62.2292C83.3817 63.5376 74.8031 64.8632 66.23 66.2268C64.7872 66.4562 63.3443 66.6844 61.9013 66.9124C61.4379 66.9856 60.9745 67.0588 60.511 67.132C59.833 67.2392 59.155 67.3463 58.477 67.4533C55.6998 67.892 52.9237 68.3372 50.1484 68.7886C48.5968 69.0395 47.0443 69.2846 45.4915 69.5281C44.7871 69.6398 44.0831 69.7541 43.3796 69.8711C42.4317 70.0286 41.4828 70.1772 40.5332 70.3236C40.2639 70.3707 39.9947 70.4177 39.7173 70.4662C37.6634 70.7681 36.1113 70.3668 34.1785 69.6593C33.8124 69.5369 33.4464 69.4145 33.0692 69.2883C32.7389 69.1713 32.4085 69.0542 32.0682 68.9335C31.6854 68.7983 31.3026 68.663 30.9082 68.5237C30.4983 68.378 30.0884 68.2322 29.6786 68.0865C29.243 67.9322 28.8073 67.778 28.3717 67.6238C27.2152 67.2144 26.0591 66.8039 24.9031 66.3932C23.9488 66.0543 22.9944 65.716 22.04 65.3777C14.7949 62.8096 7.55542 60.2258 0.325439 57.6155C0.325439 57.2932 0.325439 56.971 0.325439 56.6389C0.539966 56.563 0.754498 56.487 0.975526 56.4087C11.4661 52.6927 21.9526 48.9661 32.4274 45.2059C32.7774 45.0803 33.1274 44.9547 33.4881 44.8252C33.8372 44.6999 34.1863 44.5745 34.546 44.4454C38.6332 42.9786 42.7227 41.5183 46.8124 40.0583C47.1902 39.9233 47.5681 39.7884 47.9574 39.6494C49.8694 38.9668 51.7814 38.2843 53.6934 37.6018C57.117 36.3797 60.5403 35.157 63.9637 33.9343C65.8621 33.2562 67.7606 32.5782 69.6591 31.9002C70.4186 31.6289 71.1782 31.3576 71.9377 31.0864C85.6091 26.2037 99.2805 21.3211 112.952 16.4384C113.516 16.237 113.516 16.237 114.091 16.0316C114.851 15.7602 115.611 15.4888 116.371 15.2174C118.264 14.5411 120.158 13.8647 122.052 13.1883C125.53 11.946 129.008 10.7039 132.487 9.46295C133.682 9.03651 134.877 8.6099 136.072 8.18329C137.62 7.63071 139.169 7.079 140.718 6.52792C144.085 5.32836 147.449 4.12026 150.799 2.87126C151.35 2.66707 151.901 2.46296 152.452 2.25894C153.44 1.89304 154.426 1.52091 155.41 1.14461C155.841 0.984533 156.273 0.824701 156.704 0.665162C157.248 0.458835 157.248 0.458835 157.804 0.24834C160.156 -0.310212 162.295 0.678448 164.483 1.48148Z" fill="white"/>
<path d="M61.5215 91.1431C61.9922 91.2458 62.4628 91.3491 62.9334 91.4525C63.1954 91.51 63.4575 91.5674 63.7275 91.6266C64.5024 91.8059 65.2413 92.0301 65.9885 92.3025C66.256 92.399 66.5235 92.4956 66.7992 92.595C67.0821 92.6991 67.3651 92.8032 67.6566 92.9105C67.9638 93.0218 68.271 93.1331 68.5875 93.2478C69.2532 93.4892 69.9187 93.7314 70.5839 93.9744C72.0307 94.5028 73.4789 95.0272 74.9271 95.5518C75.6932 95.8294 76.4593 96.1072 77.2252 96.3852C81.3845 97.8942 85.5514 99.3816 89.7188 100.868C90.4848 101.141 91.2507 101.414 92.0166 101.688C93.5594 102.238 95.1023 102.789 96.6452 103.339C100.074 104.563 103.503 105.788 106.932 107.012C108.83 107.69 110.728 108.368 112.627 109.046C113.386 109.317 114.146 109.589 114.905 109.86C115.469 110.061 115.469 110.061 116.044 110.267C119.462 111.487 119.462 111.487 120.601 111.894C121.362 112.166 122.122 112.437 122.882 112.709C124.771 113.383 126.659 114.058 128.548 114.733C132.086 115.996 135.625 117.26 139.164 118.521C140.823 119.113 142.483 119.705 144.143 120.297C144.929 120.577 145.715 120.857 146.501 121.137C147.242 121.401 147.983 121.665 148.724 121.93C149.421 122.178 150.118 122.426 150.815 122.674C152.3 123.203 153.779 123.741 155.244 124.324C155.484 124.418 155.723 124.512 155.97 124.61C156.585 124.854 157.198 125.105 157.811 125.356C160.034 125.979 162.137 124.901 164.231 124.154C164.572 124.034 164.912 123.915 165.262 123.791C166.387 123.394 167.511 122.995 168.635 122.595C169.428 122.315 170.222 122.034 171.015 121.754C178.134 119.235 185.241 116.685 192.347 114.131C196.478 112.647 200.612 111.172 204.746 109.697C211.014 107.46 217.28 105.218 223.544 102.97C227.693 101.482 231.843 99.9957 235.994 98.5141C236.198 98.4413 236.402 98.3684 236.612 98.2934C238.777 97.5206 240.942 96.7481 243.108 95.9761C243.825 95.7201 244.543 95.4641 245.261 95.2081C245.604 95.0859 245.947 94.9637 246.3 94.8378C248.012 94.2267 249.721 93.6091 251.426 92.9796C251.757 92.8577 252.089 92.7358 252.43 92.6103C253.054 92.3798 253.679 92.1479 254.302 91.9146C254.578 91.8128 254.854 91.711 255.139 91.6061C255.379 91.5163 255.62 91.4265 255.869 91.334C256.502 91.1431 256.502 91.1431 257.479 91.1431C257.501 100.005 257.519 108.867 257.529 117.729C257.534 121.844 257.541 125.959 257.552 130.074C257.562 133.661 257.568 137.247 257.571 140.834C257.572 142.733 257.575 144.632 257.582 146.531C257.589 148.319 257.591 150.107 257.589 151.896C257.589 152.551 257.591 153.206 257.595 153.862C257.6 154.759 257.599 155.656 257.596 156.553C257.599 156.81 257.602 157.068 257.605 157.333C257.585 159.758 256.958 161.983 255.546 163.976C255.374 164.219 255.203 164.461 255.026 164.711C254.869 164.925 254.711 165.139 254.549 165.359C254.348 165.641 254.146 165.923 253.939 166.214C246.37 174.673 234.031 179.353 223.626 182.937C223.299 183.051 222.972 183.165 222.635 183.282C206.703 188.79 189.931 191.445 173.172 192.702C172.709 192.738 172.709 192.738 172.237 192.775C144.494 194.832 114.579 190.863 68.6268 169.4C67.8653 168.722 67.1288 168.03 66.4042 167.312C66.1088 167.037 65.8134 166.762 65.509 166.478C62.7168 163.453 61.4674 160.849 61.4824 156.709C61.4821 156.429 61.4818 156.148 61.4815 155.859C61.481 154.92 61.4828 153.98 61.4846 153.04C61.4847 152.367 61.4846 151.693 61.4844 151.019C61.4843 149.19 61.4863 147.361 61.4885 145.532C61.4906 143.62 61.4907 141.709 61.4911 139.797C61.4921 136.178 61.4948 132.558 61.4981 128.938C61.5017 124.817 61.5035 120.696 61.5051 116.575C61.5086 108.098 61.5143 99.6204 61.5215 91.1431Z" fill="white"/>
<path d="M42.3163 74.2163C46.1834 74.2163 50.0504 74.2163 54.0347 74.2163C54.0347 108.698 54.0347 143.179 54.0347 178.705C54.5718 178.92 55.1089 179.135 55.6622 179.356C58.0094 181.424 59.6977 184.156 59.96 187.313C60.0259 191.079 59.021 194.068 56.4341 196.854C53.8297 199.265 50.8069 199.988 47.3465 199.954C44.2243 199.703 41.6229 198.282 39.4897 196.03C37.3706 193.445 36.5322 190.552 36.6619 187.233C37.0535 183.857 38.5664 181.66 41.0143 179.356C41.3365 179.141 41.6588 178.926 41.9908 178.705C42.1399 177.923 42.1399 177.923 42.1161 176.993C42.1191 176.628 42.1222 176.263 42.1254 175.886C42.1238 175.482 42.1222 175.077 42.1206 174.66C42.1228 174.233 42.1249 173.806 42.1272 173.365C42.133 172.175 42.1328 170.986 42.1317 169.796C42.1315 168.514 42.1369 167.232 42.1416 165.951C42.149 163.729 42.1529 161.507 42.1543 159.285C42.1564 156.073 42.1639 152.861 42.1727 149.648C42.1868 144.437 42.1965 139.225 42.2036 134.014C42.2104 128.95 42.2193 123.886 42.2309 118.823C42.2316 118.511 42.2323 118.199 42.2331 117.878C42.2367 116.313 42.2403 114.748 42.244 113.183C42.2743 100.194 42.2974 87.2053 42.3163 74.2163Z" fill="#FFAF01"/>
<path d="M62.8235 78.1226C62.5012 78.23 62.179 78.3374 61.8469 78.4481C61.7395 78.663 61.6321 78.8778 61.5214 79.0991C60.5547 78.938 60.5547 78.938 59.5684 78.7736C59.5684 78.5588 59.5684 78.344 59.5684 78.1226C60.7607 77.8787 61.6593 77.7196 62.8235 78.1226Z" fill="white"/>
</g>
<defs>
<clipPath id="clip0_608_201">
<rect width="319" height="199.863" fill="white"/>
</clipPath>
</defs>
</svg>
